:SAMPLES-PER-SECOND 30
:FULLY-SPECIFIED
:DEGREES
209
root  -33.198 34.8164 7.49235 -169.092 77.3193 -174.396
RightUpLeg  -2.78246 -9.27803 6.42762
RightLeg  2.09722 6.13775 -0.168526
RightFoot  3.58735 0.0110629 0.498763
RightToes  -21.0585 -0.0885561 -0.187906
Spine  -1.7944 0.51752 1.15886
Spine1  -3.24523 1.37529 2.96766
HEad  -59.6427 -6.20034 6.86575
LeftShoulder1  -1.94126e-019 -3.10601e-018 -2.51263e-017
LeftArm  -3.00968 3.53031 -56.1434
LeftForeArm  0.978666 -70.8261 -36.7293
LeftHand  0.206752 3.28557 -12.8884
RightShoulder  -4.96962e-017 0 -2.36833e-017
RightArm  -22.683 -0.96963 62.45
RightForeArm  36.8183 75.8298 48.1867
RightHand  0.712674 -0.271632 16.1994
LeftUpLeg  -14.2538 3.47635 7.45066
LeftLeg  22.0833 6.33367 2.09867
LeftFoot  5.34893 -0.0306434 0.817532
LeftToes  -31.0144 1.89912e-006 4.45198e-008
210
root  -33.2117 34.8259 7.41259 -169.582 77.7144 -174.474
RightUpLeg  -2.53356 -8.98726 6.16805
RightLeg  2.43439 6.16765 -0.133026
RightFoot  3.50185 0.0101307 0.502122
RightToes  -21.2305 -0.089559 -0.190505
Spine  -1.9988 0.532527 1.19309
Spine1  -3.63149 1.42422 2.99416
HEad  -57.7642 -5.87039 6.51763
LeftShoulder1  -1.94126e-019 -3.10601e-018 -2.51263e-017
LeftArm  -9.73855 -3.59103 -61.0404
LeftForeArm  -7.53795 -57.9164 -19.0805
LeftHand  0.162554 3.10007 -9.43481
RightShoulder  -4.96962e-017 0 -2.36833e-017
RightArm  -27.8785 7.11185 65.7145
RightForeArm  15.4688 64.6122 23.1344
RightHand  0.41098 -1.25259 11.8176
LeftUpLeg  -13.1146 2.48689 7.22285
LeftLeg  19.642 7.56884 2.15451
LeftFoot  5.52777 -0.0414538 0.95347
LeftToes  -27.0403 1.89912e-006 4.45198e-008
211
root  -33.2016 34.8246 7.30901 -169.518 78.0502 -173.857
RightUpLeg  -2.1285 -8.81447 5.99722
RightLeg  2.79885 6.27755 -0.0954477
RightFoot  3.42845 0.00923147 0.502379
RightToes  -21.7608 -0.0914904 -0.193317
Spine  -2.14091 0.515696 1.23576
Spine1  -3.91877 1.38789 3.0495
HEad  -56.3012 -5.76252 6.64831
LeftShoulder1  -1.94126e-019 -3.10601e-018 -2.51263e-017
LeftArm  -19.0533 -10.1112 -66.8145
LeftForeArm  -0.296037 -43.9468 -10.8903
LeftHand  -0.00777773 3.40239 -0.658024
RightShoulder  -4.96962e-017 0 -2.36833e-017
RightArm  -33.8205 14.2 69.0088
RightForeArm  10.814 50.1603 12.6998
RightHand  0.0326119 -3.5107 3.33924
LeftUpLeg  -11.6957 2.44034 6.94207
LeftLeg  18.0188 9.96972 2.53106
LeftFoot  5.23307 -0.0534465 1.13589
LeftToes  -25.9779 1.89912e-006 4.45198e-008
212
root  -33.1802 34.838 7.18699 -169.945 78.2365 -173.889
RightUpLeg  -1.85603 -8.93631 5.68355
RightLeg  3.19456 6.56381 -0.0544652
RightFoot  3.35043 0.00847429 0.497854
RightToes  -22.4486 -0.0955251 -0.196212
Spine  -2.23235 0.334423 1.17289
Spine1  -4.1238 0.985291 2.94452
HEad  -55.3868 -5.52398 7.23333
LeftShoulder1  -1.94126e-019 -3.10601e-018 -2.51263e-017
LeftArm  -29.245 -14.4541 -71.3081
LeftForeArm  13.102 -33.4861 -6.74981
LeftHand  0.00387558 5.55943 13.3115
RightShoulder  -4.96962e-017 0 -2.36833e-017
RightArm  -41.6178 19.869 72.2716
RightForeArm  14.3368 36.5134 7.47457
RightHand  0.071442 -7.09273 -6.92845
LeftUpLeg  -10.3161 2.6 6.64544
LeftLeg  16.321 10.2624 2.28547
LeftFoot  5.13616 -0.0526678 1.13533
LeftToes  -24.5003 1.89912e-006 4.45198e-008
213
root  -33.1586 34.8618 7.04391 -171.099 78.4226 -174.882
RightUpLeg  -1.83742 -8.86459 5.20348
RightLeg  3.67807 6.63636 0.000893768
RightFoot  3.16897 0.00836168 0.481247
RightToes  -22.903 -0.0977968 -0.199744
Spine  -2.33131 0.0222949 0.996568
Spine1  -4.34263 0.312631 2.64179
HEad  -54.993 -5.13679 8.07361
LeftShoulder1  -1.94126e-019 -3.10601e-018 -2.51263e-017
LeftArm  -34.1976 -14.943 -73.2732
LeftForeArm  19.6466 -28.8362 -5.65579
LeftHand  0.646401 8.66567 22.9398
RightShoulder  -4.96962e-017 0 -2.36833e-017
RightArm  -49.5869 22.9294 74.5745
RightForeArm  21.4431 26.3373 4.65999
RightHand  0.738548 -10.6577 -16.724
LeftUpLeg  -9.17704 2.74227 6.20492
LeftLeg  14.6064 10.422 1.99767
LeftFoot  5.73535 -0.0593586 1.25381
LeftToes  -24.9861 1.89912e-006 4.45198e-008
214
root  -33.1194 34.9015 6.89053 -172.65 79.0114 -176.555
RightUpLeg  -2.02443 -8.30105 4.61325
RightLeg  4.05478 6.58975 0.0441738
RightFoot  3.09009 0.00769225 0.469602
RightToes  -23.2341 -0.0994244 -0.201803
Spine  -2.49032 -0.169574 0.822007
Spine1  -4.68562 -0.131046 2.34454
HEad  -55.0787 -4.90387 8.51288
LeftShoulder1  -1.94126e-019 -3.10601e-018 -2.51263e-017
LeftArm  -29.7966 -11.6232 -73.848
LeftForeArm  15.8666 -28.3072 -5.5437
LeftHand  0.865109 9.77301 22.8843
RightShoulder  -4.96962e-017 0 -2.36833e-017
RightArm  -54.1887 22.2714 75.6988
RightForeArm  31.3336 20.7416 3.86405
RightHand  1.28838 -12.7539 -20.393
LeftUpLeg  -8.45825 3.53104 5.6331
LeftLeg  13.4039 10.2421 1.74303
LeftFoot  6.25833 -0.0634888 1.32285
LeftToes  -25.2305 1.89912e-006 4.45198e-008
